<svg xmlns="http://www.w3.org/2000/svg" width="18" height="16" viewBox="0 0 18 16">
    <g fill="none" fill-rule="evenodd">
        <path fill="#00A2E7" d="M6.734 6.439C5.01 5.755-.122 3.097.002 7.056c.089 2.845 3.895 3.066 6 2.548-.992.302-2.088.878-2.77 1.682-.63.742-1.192 2.277-.759 3.254.557 1.257 2.71 1.348 3.844.994 1.364-.426 2.335-1.848 3.437-2.623-.275 2.47 2.708 4.02 4.374 2 1.573-1.909-.742-3.918-2.23-5.052 1.293-.098 2.525.605 3.765-.262 1.082-.756 1.861-2.451 1.393-3.708-.47-1.265-2.276-2.207-3.59-1.99-1.184.196-2.303 1.086-3.145 1.883 1.387-1.479 1.463-4.504-.653-5.369-1.722-.704-3.501.1-3.963 1.828-.246.917-.16 1.687.255 2.517.19.38.583 1.62.774 1.681"/>
        <path fill="#FFD900" d="M7.606 6.677c-1.574.66-1.535 3.012-.101 3.782 1.45.777 2.913.46 3.368-1.173.31-1.113.1-2.598-1.045-3.165-.793-.393-1.861-.03-2.222.556"/>
    </g>
</svg>
